<svg width="417" height="367" viewBox="0 0 417 367" fill="none" xmlns="http://www.w3.org/2000/svg">
<path d="M133.572 426.014L38.5691 325.749L58.622 306.748L39.6215 286.695L59.6745 267.695L40.674 247.642L100.833 190.64L119.833 210.693L139.886 191.693L158.887 211.746L178.94 192.745L273.942 293.01L233.836 331.011L195.835 290.905L135.677 347.907L173.678 388.013L133.572 426.014ZM116.676 327.854L176.835 270.852L138.834 230.746L118.781 249.747L99.7804 229.694L79.7274 248.694L98.7279 268.747L78.675 287.748L116.676 327.854ZM314.048 255.009L295.048 234.956L335.154 196.955L240.151 96.6903L200.045 134.691L181.045 114.638L301.362 0.635293L320.363 20.6882L280.257 58.6893L375.26 158.954L415.365 120.953L434.366 141.006L314.048 255.009Z" fill="#D4D4D4" fill-opacity="0.1"/>
</svg>
